C:\GBW_MyPrograms\KinderuniversiteitApp\Resultaten\New_group\Olaf\Olaf_v1.mot
version=1
nRows=8
nColumns=29
inDegrees=yes
endheader
                time	         pelvis_tilt	           pelvis_tx	           pelvis_ty	       hip_flexion_l	       hip_flexion_r	        knee_angle_l	        knee_angle_r	       ankle_angle_l	       ankle_angle_r	    lumbar_extension	hamstrings_r/activation	bifemsh_r/activation	glut_max_r/activation	iliopsoas_r/activation	rect_fem_r/activation	  vasti_r/activation	gastroc_r/activation	 soleus_r/activation	tib_ant_r/activation	hamstrings_l/activation	bifemsh_l/activation	glut_max_l/activation	iliopsoas_l/activation	rect_fem_l/activation	  vasti_l/activation	gastroc_l/activation	 soleus_l/activation	tib_ant_l/activation	
          0.47384086	        -16.95179621	          0.57845557	          0.87859972	         38.53754354	          6.07047860	         -6.83883546	        -18.44878189	         15.02748012	         14.22839727	          1.13720359	          0.37514109	          0.97387824	          0.07925913	          0.99408116	          0.07372033	          0.05172754	          0.99571415	          0.99804500	          0.05193959	          0.99202296	          0.62698105	          0.98310491	          0.05930644	          0.06416389	          0.47495047	          0.05112187	          0.05102303	          0.99810246	
          0.48331768	        -16.68789954	          0.59603069	          0.87606624	         36.62056136	          6.62383526	         -5.51688729	        -22.08361318	         13.26185195	         14.12261835	          1.61728446	          0.32352485	          0.97513123	          0.06909828	          0.93583188	          0.07287823	          0.05086298	          0.99566564	          0.99827562	          0.05116296	          0.99477005	          0.76605797	          0.98784699	          0.05446100	          0.05879838	          0.40912902	          0.05069689	          0.05056088	          0.99883950	
          0.49279449	        -16.43056212	          0.60963601	          0.87418581	         34.99519038	          7.64707930	         -4.56464044	        -26.36037335	         10.56497960	         13.44102279	          1.94150329	          0.27873439	          0.96859523	          0.06033825	          0.96065650	          0.43299056	          0.05016484	          0.99584975	          0.99814640	          0.05026852	          0.99034082	          0.85214464	          0.97480465	          0.05602071	          0.05817778	          0.35299575	          0.05094110	          0.05080582	          0.99869038	
          0.50227131	        -16.24639489	          0.62314057	          0.87348092	         33.88068673	          9.22606558	         -4.02574381	        -31.10800193	          6.25688039	         11.56418447	          2.09564757	          0.24013371	          0.92506033	          0.05385169	          0.97497648	          0.65310454	          0.05010351	          0.93200497	          0.87931499	          0.05007314	          0.99211016	          0.90327520	          0.97693093	          0.06045165	          0.05700189	          0.30470541	          0.05139478	          0.05147102	          0.99900299	
          0.51174813	        -16.05717408	          0.63534854	          0.87386875	         33.13653944	         11.05639603	         -3.97657368	        -35.77172591	          1.77771798	          8.45719978	          2.02752050	          0.20689092	          0.81229004	          0.05182579	          0.98272339	          0.78757210	          0.05005914	          0.80480909	          0.75889017	          0.23717204	          0.99315006	          0.88302694	          0.98007057	          0.06104833	          0.05520375	          0.26319785	          0.05075313	          0.05065637	          0.99969696	
          0.52122494	        -15.83391328	          0.64667089	          0.87499409	         32.63644522	         12.92735181	         -4.45488870	        -40.12720312	         -1.58159938	          4.62213117	          1.77143941	          0.17825843	          0.71420309	          0.05274388	          0.98629098	          0.86961962	          0.41851790	          0.69483797	          0.65484699	          0.53308045	          0.99117999	          0.76709545	          0.98466912	          0.05807831	          0.05292188	          0.54960325	          0.05008215	          0.05001762	          0.99973888	
          0.53070176	        -15.52785612	          0.65745744	          0.87671226	         32.19615545	         14.60674133	         -5.35878340	        -43.91184247	         -3.02807504	          1.67802444	          1.32211240	          0.15359915	          0.64025384	          0.05371965	          0.98660412	          0.91961363	          0.64390546	          0.59995786	          0.56506247	          0.71040072	          0.98784764	          0.66365825	          0.98856935	          0.05456404	          0.11421769	          0.72441661	          0.21379682	          0.41863875	          0.86251149	
          0.54017858	        -15.13352212	          0.66784376	          0.87904409	         31.68032535	         16.02724105	         -6.42408659	        -47.01975185	         -2.91791970	          0.12767940	          0.69061444	          0.13235966	          0.59890515	          0.05322688	          0.98864036	          0.95018593	          0.78203335	          0.51804216	          0.48756611	          0.81894608	          0.98310619	          0.58065568	          0.98630444	          0.05682609	          0.10726090	          0.83062869	          0.18525398	          0.36162888	          0.91459580	
